<?xml version="1.0" standalone="no"?>
<!DOCTYPE svg PUBLIC "-//W3C//DTD SVG 20010904//EN"
 "http://www.w3.org/TR/2001/REC-SVG-20010904/DTD/svg10.dtd">
<svg version="1.0" xmlns="http://www.w3.org/2000/svg"
 width="250.000000pt" height="250.000000pt" viewBox="0 0 250.000000 250.000000"
 preserveAspectRatio="xMidYMid meet">
<metadata>
Created by potrace 1.11, written by Peter Selinger 2001-2013
</metadata>
<g transform="translate(0.000000,250.000000) scale(0.100000,-0.100000)"
fill="#000000" stroke="none">
<path d="M217 1979 c4 -13 8 -18 11 -10 2 7 -1 18 -6 23 -8 8 -9 4 -5 -13z"/>
<path d="M1890 1995 c0 -3 -23 -143 -50 -312 -28 -169 -50 -321 -48 -338 2
-16 13 33 26 110 43 255 83 490 88 518 4 16 2 27 -5 27 -6 0 -11 -2 -11 -5z"/>
<path d="M2134 1840 c8 -47 56 -480 56 -507 0 -16 -41 -56 -152 -148 -84 -70
-160 -131 -168 -135 -8 -5 -12 -12 -8 -16 8 -8 65 34 217 160 58 47 108 86
112 86 6 0 15 -71 22 -172 1 -16 5 -28 9 -28 17 0 19 51 5 131 l-14 84 36 33
c20 18 49 43 65 55 16 12 41 33 55 47 14 14 40 34 56 46 51 34 75 58 75 72 0
8 -22 -5 -51 -30 -103 -87 -234 -187 -238 -182 -3 3 -6 15 -7 27 -26 243 -59
494 -67 502 -6 6 -7 -2 -3 -25z"/>
<path d="M1170 1840 c-212 -39 -377 -200 -435 -425 -19 -76 -19 -224 0 -300
46 -181 178 -335 339 -398 80 -31 226 -35 313 -9 274 84 441 388 378 687 -31
147 -133 297 -255 375 -92 59 -239 89 -340 70z m-288 -503 c12 -18 10 -51 -4
-65 -9 -9 -9 -15 0 -24 17 -17 15 -64 -4 -82 -8 -9 -29 -16 -45 -16 l-29 0 0
98 c0 54 3 102 7 106 11 11 65 -2 75 -17z m70 -69 c2 -75 6 -93 18 -93 12 0
16 19 20 88 3 48 9 87 15 87 14 0 18 -140 6 -173 -11 -29 -47 -37 -69 -15 -15
15 -17 198 -2 198 5 0 11 -42 12 -92z m182 70 c15 -24 -1 -36 -18 -13 -12 16
-16 17 -30 6 -25 -21 -19 -40 19 -62 30 -18 35 -26 35 -58 0 -42 -14 -61 -46
-61 -25 0 -49 24 -39 40 5 8 13 6 25 -5 23 -21 40 -12 40 19 0 15 -13 33 -35
50 -23 18 -35 35 -35 51 0 49 59 72 84 33z m66 -83 c0 -63 -4 -105 -10 -105
-6 0 -10 42 -10 105 0 63 4 105 10 105 6 0 10 -42 10 -105z m85 42 c25 -66 35
-67 35 -3 0 30 5 58 10 61 6 4 10 -32 10 -99 0 -58 -4 -106 -9 -106 -4 0 -17
23 -28 52 -27 72 -43 73 -43 4 0 -31 -4 -56 -10 -56 -6 0 -10 39 -10 98 0 130
11 142 45 49z m175 54 c0 -5 -12 -11 -27 -13 -23 -2 -29 -8 -31 -35 -3 -29 0
-33 22 -33 35 0 42 -18 9 -22 -25 -3 -28 -7 -28 -38 0 -31 3 -35 28 -38 42 -5
32 -22 -13 -22 l-40 0 0 98 c0 54 3 102 7 105 10 11 73 8 73 -2z m105 -4 c10
-8 15 -19 11 -26 -6 -9 -11 -7 -21 6 -11 15 -15 15 -29 4 -23 -20 -20 -38 12
-58 15 -10 30 -22 34 -28 12 -16 9 -70 -4 -83 -27 -27 -91 -1 -72 29 5 9 11 7
20 -6 17 -24 44 -12 44 19 0 17 -9 32 -27 43 -35 22 -43 33 -43 60 0 24 24 53
44 53 7 0 20 -6 31 -13z m120 0 c11 -9 15 -19 10 -27 -6 -10 -11 -9 -21 5 -11
15 -16 16 -29 5 -22 -19 -18 -37 13 -57 36 -23 42 -32 42 -68 0 -36 -16 -55
-46 -55 -29 0 -51 27 -36 42 8 8 13 7 18 -5 10 -26 33 -20 40 10 6 22 1 31
-29 56 -40 32 -48 65 -21 91 19 20 35 20 59 3z"/>
<path d="M827 1323 c-11 -10 -8 -41 4 -49 16 -9 43 21 36 40 -7 16 -28 21 -40
9z"/>
<path d="M827 1243 c-12 -11 -8 -50 7 -62 19 -16 40 12 32 44 -6 24 -25 33
-39 18z"/>
<path d="M2487 1284 c5 -13 3 -15 -7 -9 -9 5 -11 4 -6 -3 10 -16 -32 -94 -46
-86 -8 5 -9 1 -5 -10 4 -10 3 -15 -4 -11 -5 4 -21 0 -34 -9 -13 -9 -31 -16
-40 -16 -8 0 -15 -7 -15 -15 0 -8 -4 -15 -9 -15 -20 0 -57 -46 -55 -68 1 -16
-3 -21 -12 -18 -7 3 -16 1 -19 -4 -4 -6 -16 -8 -28 -5 -29 6 -62 -19 -53 -41
3 -9 13 -14 21 -11 8 4 12 1 10 -6 -4 -12 56 -57 76 -57 16 0 9 -47 -10 -64
-23 -20 -40 -4 -20 20 6 8 10 15 8 17 -64 36 -78 40 -103 23 -14 -9 -34 -16
-46 -16 -11 0 -20 -4 -20 -10 0 -14 -36 -12 -68 4 -15 7 -45 16 -67 19 -171
25 -186 29 -195 51 -4 11 -4 29 2 39 5 10 5 17 -1 17 -5 0 -12 -14 -16 -31 -4
-17 -13 -33 -22 -36 -8 -3 -12 -12 -8 -21 3 -8 0 -21 -6 -28 -6 -7 -23 -48
-38 -91 -16 -43 -35 -95 -45 -115 -9 -21 -14 -38 -11 -38 3 0 33 56 66 125 34
70 66 125 74 125 14 0 95 -65 131 -106 12 -13 24 -21 28 -17 3 3 6 1 6 -5 0
-6 10 -14 21 -17 20 -7 20 -8 -10 -22 -17 -9 -31 -19 -31 -24 0 -5 -7 -9 -15
-9 -8 0 -15 -4 -15 -10 0 -5 7 -10 15 -10 8 0 15 -7 15 -16 0 -8 -4 -13 -9
-10 -5 4 -7 -3 -4 -14 4 -13 -1 -22 -13 -27 -34 -14 -154 -87 -149 -91 5 -5
91 25 130 46 29 15 30 15 15 -4 -8 -10 -19 -22 -25 -26 -6 -5 -6 -8 1 -8 6 0
19 9 29 20 20 22 64 27 83 8 9 -9 18 -9 37 0 39 18 63 15 76 -10 18 -35 27
-38 137 -38 107 0 124 8 72 35 -27 14 -28 18 -19 42 15 40 30 54 50 48 10 -4
27 -2 37 4 17 9 18 15 9 59 -10 47 -12 50 -48 56 -31 5 -49 21 -49 42 0 11 29
2 41 -12 7 -8 21 -13 30 -11 23 6 35 -9 43 -53 21 -111 22 -110 -39 -112 -48
-2 -68 -33 -30 -48 15 -6 25 -17 25 -30 0 -19 6 -20 95 -20 l95 0 0 395 c-1
232 -5 397 -10 400 -6 4 -7 -2 -3 -11z m-117 -194 c-13 -9 -13 -11 0 -20 13
-8 13 -10 -1 -10 -26 0 -31 36 -5 38 17 1 18 -1 6 -8z m-64 -57 c-4 -4 -11 -1
-16 7 -16 25 -11 35 7 17 9 -9 13 -20 9 -24z m-381 -169 c86 -16 89 -18 58
-28 -48 -16 -59 -31 -39 -51 41 -41 8 -24 -101 53 -35 24 -63 46 -63 49 0 3
12 3 28 0 15 -3 68 -14 117 -23z m130 -24 c3 -5 -3 -10 -14 -10 -12 0 -21 5
-21 10 0 6 6 10 14 10 8 0 18 -4 21 -10z"/>
<path d="M426 1261 c-17 -6 -15 -9 13 -21 36 -14 50 -8 31 15 -14 17 -16 17
-44 6z"/>
<path d="M2142 1180 c0 -14 2 -19 5 -12 2 6 2 18 0 25 -3 6 -5 1 -5 -13z"/>
<path d="M2158 1120 c-7 -23 16 -60 37 -59 11 0 14 3 7 6 -6 2 -10 8 -8 12 3
3 -4 17 -13 30 -13 17 -20 20 -23 11z"/>
<path d="M1796 984 c-15 -14 -26 -27 -24 -29 2 -3 20 9 39 25 19 16 30 29 24
29 -5 0 -23 -11 -39 -25z"/>
<path d="M2067 974 c-3 -3 -3 -13 0 -21 3 -9 0 -14 -8 -13 -22 3 -59 -11 -59
-23 0 -6 3 -7 7 -4 3 4 12 -1 19 -11 12 -16 13 -16 14 3 0 13 10 25 29 32 24
9 29 8 24 -3 -4 -10 0 -12 11 -8 12 4 15 13 10 28 -9 28 -16 34 -21 19 -3 -7
-9 -13 -14 -13 -6 0 -7 5 -4 10 7 11 2 14 -8 4z"/>
<path d="M1 694 l2 -194 144 0 144 0 -6 37 c-3 22 -16 47 -29 58 -13 11 -26
30 -30 42 -9 27 -33 53 -49 53 -7 0 -21 -15 -31 -34 -10 -19 -25 -37 -32 -40
-8 -3 -14 -13 -14 -21 0 -9 -5 -25 -10 -35 -10 -19 -12 -19 -45 -2 -19 9 -35
20 -35 25 0 11 28 9 35 -3 12 -19 35 -10 35 13 0 13 9 32 19 41 11 10 23 32
27 50 3 17 13 39 21 48 13 15 12 18 -14 35 -44 29 -62 46 -57 55 3 4 0 8 -5 8
-6 0 -11 8 -11 18 0 10 -12 22 -30 29 l-31 12 2 -195z"/>
<path d="M1556 569 c-15 -33 -26 -62 -24 -65 3 -2 17 24 32 57 15 34 25 63 23
65 -2 3 -16 -23 -31 -57z"/>
<path d="M1885 516 c-18 -14 -13 -15 63 -16 50 0 82 4 82 10 0 17 -29 23 -45
10 -14 -12 -30 -11 -65 4 -9 4 -24 0 -35 -8z"/>
</g>
</svg>
